<svg width="69" height="23" viewBox="0 0 69 23" fill="none" xmlns="http://www.w3.org/2000/svg">
<g clip-path="url(#clip0_14_40)">
<path d="M0.5 0.5H15.2156V7.78567H7.8578L0.5 0.5ZM0.5 7.78567H7.8578L15.2156 15.0713H0.5V7.78567ZM0.5 15.0713H7.8578V22.357L0.5 15.0713Z" fill="white"/>
<path d="M23.5187 6.24767H29.467V8.11933H25.7701V10.7203H29.467V12.5507H25.7701V15.881H23.5187V6.24767ZM30.69 9.24767H32.8165V10.6377C32.9276 10.16 33.1548 9.79333 33.4975 9.53667C33.8489 9.27033 34.2391 9.13767 34.6649 9.13767C34.8875 9.13767 35.0729 9.15633 35.2207 9.19266V11.147C35.0087 11.1217 34.7952 11.108 34.5815 11.1057C33.9977 11.1057 33.5581 11.2933 33.2612 11.6697C32.9653 12.0367 32.8165 12.587 32.8165 13.3213V15.881H30.691V9.24767H30.69ZM38.5776 16.06C37.9293 16.06 37.3637 15.9083 36.882 15.6057C36.4094 15.303 36.0337 14.8733 35.7981 14.367C35.5479 13.8353 35.422 13.2337 35.422 12.5643C35.422 11.9037 35.5527 11.307 35.8119 10.7753C36.0549 10.2617 36.4407 9.82733 36.9238 9.523C37.4142 9.22033 37.9751 9.06867 38.6056 9.06867C39.0779 9.06867 39.5 9.17 39.8703 9.37167C40.2406 9.574 40.5187 9.84933 40.7042 10.1973V9.24767H42.8165V15.881H40.7042V14.945C40.5187 15.2753 40.2315 15.5457 39.8424 15.757C39.4532 15.9613 39.0183 16.0653 38.5776 16.06ZM39.1893 14.312C39.6986 14.312 40.0925 14.147 40.3706 13.8167C40.6486 13.4863 40.7876 13.0687 40.7876 12.5643C40.7876 12.069 40.6486 11.656 40.3706 11.3257C40.0925 10.9953 39.6986 10.8303 39.1893 10.8303C38.7069 10.8303 38.3184 10.9907 38.0219 11.312C37.7347 11.6333 37.591 12.0503 37.591 12.5643C37.591 13.0783 37.7347 13.5 38.0219 13.8303C38.3184 14.1517 38.7076 14.312 39.1893 14.312ZM44.3038 9.24767H46.4303V10.211C46.5791 9.871 46.8194 9.59567 47.1527 9.38533C47.4961 9.175 47.8943 9.06867 48.3481 9.06867C49.4045 9.06867 50.1043 9.47667 50.4467 10.2937C50.6352 9.92333 50.9301 9.617 51.2947 9.413C51.6845 9.18067 52.1322 9.06167 52.587 9.06867C54.1715 9.06867 54.9636 9.96733 54.9636 11.766V15.881H52.8233V12.1513C52.8233 11.7023 52.7398 11.372 52.5732 11.1607C52.4062 10.95 52.1561 10.844 51.8225 10.844C51.4613 10.844 51.1832 10.968 50.9887 11.2157C50.7941 11.4543 50.6968 11.8713 50.6968 12.468V15.881H48.5565V12.1377C48.5565 11.6883 48.4733 11.3623 48.3064 11.1607C48.1495 10.95 47.9034 10.844 47.5705 10.844C47.1995 10.844 46.9167 10.968 46.7222 11.2157C46.5276 11.4543 46.4303 11.8713 46.4303 12.468V15.881H44.3045V9.24767H44.3038ZM62.9519 12.2203C62.9519 12.5043 62.9331 12.812 62.8954 13.1423H57.9486C57.9674 13.5737 58.1152 13.9033 58.3932 14.1333C58.6713 14.3623 59.0473 14.4773 59.519 14.4773C60.1771 14.4773 60.5942 14.2797 60.7699 13.8853H62.8547C62.7523 14.537 62.3911 15.064 61.7704 15.468C61.159 15.8623 60.4083 16.06 59.519 16.06C58.3704 16.06 57.4668 15.7523 56.8087 15.1377C56.1604 14.5227 55.8358 13.6653 55.8358 12.5643C55.8358 11.8487 55.984 11.2293 56.2805 10.7063C56.567 10.184 57.0087 9.76133 57.5453 9.49533C58.0923 9.21133 58.7269 9.06867 59.4503 9.06867C60.1353 9.06867 60.7419 9.20166 61.2701 9.468C61.8074 9.73433 62.2201 10.1057 62.5069 10.5827C62.8038 11.0603 62.9519 11.606 62.9519 12.2203ZM60.8524 11.835C60.8433 11.3947 60.7184 11.0593 60.477 10.8303C60.2367 10.6013 59.8886 10.4863 59.4348 10.4863C58.981 10.4863 58.6198 10.61 58.3508 10.858C58.0916 11.0967 57.9573 11.422 57.9475 11.835H60.8524ZM63.8895 9.24767H66.016V10.6377C66.1271 10.16 66.3543 9.79333 66.697 9.53667C67.0296 9.27733 67.441 9.13667 67.8644 9.13767C68.0866 9.13767 68.2724 9.15633 68.4202 9.19266V11.147C68.2081 11.1217 67.9947 11.108 67.781 11.1057C67.1972 11.1057 66.7576 11.2933 66.4607 11.6697C66.1638 12.0367 66.016 12.587 66.016 13.3213V15.881H63.8895V9.24767Z" fill="white"/>
</g>
<defs>
<clipPath id="clip0_14_40">
<rect width="68" height="22" fill="white" transform="translate(0.5 0.5)"/>
</clipPath>
</defs>
</svg>
