<svg width="17" height="16" viewBox="0 0 17 16" fill="none" xmlns="http://www.w3.org/2000/svg">
<path d="M13.3245 8.42449L9.7245 12.0245C9.61178 12.1372 9.45891 12.2005 9.2995 12.2005C9.14009 12.2005 8.98722 12.1372 8.8745 12.0245C8.76178 11.9118 8.69846 11.7589 8.69846 11.5995C8.69846 11.4401 8.76178 11.2872 8.8745 11.1745L11.45 8.59999H4.1C3.94087 8.59999 3.78826 8.53678 3.67574 8.42426C3.56321 8.31173 3.5 8.15912 3.5 7.99999C3.5 7.84086 3.56321 7.68825 3.67574 7.57573C3.78826 7.46321 3.94087 7.39999 4.1 7.39999H11.45L8.8755 4.82399C8.76278 4.71127 8.69946 4.5584 8.69946 4.39899C8.69946 4.23959 8.76278 4.08671 8.8755 3.97399C8.98822 3.86127 9.14109 3.79795 9.3005 3.79795C9.45991 3.79795 9.61278 3.86127 9.7255 3.97399L13.3255 7.57399C13.3814 7.62981 13.4258 7.69613 13.4561 7.76914C13.4863 7.84215 13.5018 7.92042 13.5017 7.99945C13.5016 8.07848 13.4859 8.15671 13.4555 8.22965C13.4251 8.30259 13.3806 8.36881 13.3245 8.42449Z" fill="white"/>
</svg>
